<svg width="34" height="31" viewBox="0 0 34 31" fill="none" xmlns="http://www.w3.org/2000/svg">
<path d="M22.579 22.2167L28.4804 16.275L30.0198 11.1083L22.579 18.6V22.2167Z" fill="#FF9F59"/>
<path d="M1.53948 5.16667L14.8816 18.6V22.2167L16.6777 20.4083L18.7303 22.475V26.0917L20.5264 24.2833L24.257 28.0395L25.2731 25.4458L0 0L1.53948 5.16667Z" fill="#FF9F59"/>
<path d="M4.87502 16.275L11.0329 22.475L8.08227 25.4458L9.09832 28.0395L12.829 24.2833L14.8816 26.35L10.2632 31H13.8553L16.6777 28.1583L19.5001 31H23.0922L3.33554 11.1083L4.87502 16.275Z" fill="#FF9F59"/>
<path d="M18.7303 14.725V18.3417L31.8159 5.16667L33.3554 0L18.7303 14.725Z" fill="#FF9F59"/>
</svg>
